<svg xmlns="http://www.w3.org/2000/svg" width="600" height="600" fill="black" stroke="black" stroke-linecap="round"
    stroke-linejoin="round">
    <g>
        <g transform="matrix(1,0,0,1,315,296)" fill-opacity="0" stroke-width="10">
            <path
                d=" M52,-198 C46.25,-175.25 45.205,-154.944 24.454,-122.194 C4.374,-90.499 -105.271,33.727 -130.794,57.805 C-157.294,82.805 -180.5,81.75 -206.25,95.75 C-256.575,123.111 -241.75,181.5 -187.5,163.25 C-155.309,152.421 -159.25,162.5 -163.25,180.75 C-164.25,185.311 -167.481,206.236 -162,214.5 C-128.5,265 -84,234 -80.75,194.5 C-78.917,172.235 -82.213,144.994 -64.072,116.489 C-41.924,81.691 63.983,-46.168 99.677,-68.260 C128.518,-86.110 157.944,-81.099 176,-85 C197.154,-89.569 218.365,-116.139 215.75,-137.5 C213.182,-158.464 194.485,-176.789 166.75,-173.25 C148.371,-170.904 134,-144.25 138.75,-181.25 C140.5,-250.5 65.567,-251.677 52,-198z">
            </path>
            <path
                d=" M-101,182.125 C-97.5,193.125 -101.319,202.557 -103.375,204.75 M-114.5,215.5 C-116.286,216.957 -123,220.25 -126.875,219.125 M75,-190 C75.75,-200.5 91,-214.5 101.75,-210.25">
            </path>
        </g>
        <g transform="matrix(0.618,-0.785,0.785,0.618,295,320)" fill-opacity="1" stroke-width="2">
            <path
                d=" M102.563,9.038 C101.218,9.038 100.248,9.012 99.650,8.963 C98.603,8.963 97.656,9.338 96.810,10.085 C95.963,10.831 95.441,11.677 95.242,12.623 C95.193,12.923 95.167,13.222 95.167,13.520 C95.167,15.413 96.710,16.358 99.799,16.358 C105.077,16.358 110.056,14.741 114.738,11.503 C125.595,3.484 133.811,-12.574 139.389,-36.678 C139.438,-36.977 139.464,-37.249 139.464,-37.499 C139.464,-38.195 139.240,-38.793 138.792,-39.291 C138.195,-39.988 137.421,-40.338 136.477,-40.338 C135.430,-40.338 134.522,-39.988 133.75,-39.291 C132.977,-38.594 132.417,-37.723 132.070,-36.678 C130.973,-31.945 129.679,-27.239 128.184,-22.559 C128.184,-22.559 127.811,-21.438 127.811,-21.438 C125.620,-15.015 123.527,-10.133 121.537,-6.797 C121.039,-7.046 120.640,-7.295 120.342,-7.545 C120.241,-7.644 120.092,-7.743 119.893,-7.843 C119.694,-8.142 119.431,-8.465 119.109,-8.814 C118.785,-9.163 118.473,-9.562 118.175,-10.010 C118.175,-10.010 118.175,-10.234 118.175,-10.234 C117.925,-10.432 117.776,-10.682 117.726,-10.980 C115.785,-14.864 114.216,-21.065 113.021,-29.580 C112.622,-32.169 112.149,-34.709 111.601,-37.201 C111.203,-38.395 110.257,-38.993 108.763,-38.993 C108.114,-38.993 107.468,-38.844 106.820,-38.544 C105.475,-37.798 104.680,-36.752 104.430,-35.408 C104.380,-35.208 104.356,-34.985 104.356,-34.736 C104.356,-34.337 104.430,-33.914 104.580,-33.465 C104.829,-32.569 105.152,-30.652 105.551,-27.714 C106.546,-21.090 107.616,-15.861 108.763,-12.027 C110.555,-6.051 113.369,-2.065 117.204,-0.075 C116.257,1.218 115.510,2.092 114.962,2.539 C114.913,2.588 114.888,2.638 114.888,2.688 C114.888,2.737 114.862,2.763 114.814,2.763 C113.369,4.257 111.725,5.577 109.884,6.723 C108.737,7.420 107.791,7.868 107.044,8.067 C107.044,8.067 107.194,8.067 107.194,8.067 C107.194,8.067 106.970,8.142 106.970,8.142 C105.327,8.590 103.857,8.890 102.563,9.038z">
            </path>
            <path
                d=" M54.456,1.120 C56.945,1.070 59.460,1.046 62.000,1.046 C62.997,0.995 63.930,0.621 64.802,-0.075 C65.672,-0.772 66.208,-1.618 66.407,-2.615 C66.457,-2.864 66.483,-3.111 66.483,-3.361 C66.483,-4.058 66.259,-4.656 65.810,-5.153 C65.212,-5.850 64.416,-6.224 63.419,-6.275 C60.880,-6.275 58.366,-6.249 55.875,-6.199 C55.875,-6.199 47.733,-6.125 47.733,-6.125 C47.733,-6.125 43.625,-6.125 43.625,-6.125 C62.748,-24.948 72.432,-35.007 72.682,-36.304 C72.732,-36.553 72.758,-36.800 72.758,-37.050 C72.758,-37.499 72.682,-37.948 72.533,-38.395 C71.985,-39.541 71.064,-40.138 69.769,-40.188 C67.627,-40.188 65.473,-40.226 63.307,-40.300 C61.141,-40.375 58.963,-40.412 56.771,-40.412 C52.189,-40.412 47.557,-39.988 42.877,-39.143 C41.832,-38.893 41.034,-38.395 40.486,-37.648 C39.937,-36.902 39.590,-36.203 39.442,-35.556 C39.391,-35.306 39.367,-35.058 39.367,-34.810 C39.367,-33.812 39.764,-33.066 40.562,-32.569 C41.159,-32.220 41.805,-32.046 42.504,-32.046 C42.803,-32.046 43.125,-32.070 43.474,-32.120 C44.370,-32.319 45.317,-32.469 46.313,-32.569 C46.313,-32.618 46.388,-32.644 46.537,-32.644 C46.537,-32.644 47.508,-32.719 47.508,-32.719 C48.952,-32.967 51.666,-33.091 55.652,-33.091 C55.652,-33.091 61.104,-33.016 61.104,-33.016 C61.104,-33.016 60.730,-32.719 60.730,-32.719 C60.083,-31.972 56.870,-28.672 51.095,-22.820 C45.317,-16.968 39.442,-11.178 33.465,-5.453 C32.668,-4.705 32.169,-3.858 31.972,-2.913 C31.972,-2.913 31.896,-1.942 31.896,-1.942 C32.145,-0.247 33.140,0.647 34.884,0.746 C39.367,1.046 43.874,1.195 48.405,1.195 C48.405,1.195 54.456,1.120 54.456,1.120z">
            </path>
            <path
                d=" M-12.699,-1.082 C-9.961,-2.601 -7.519,-4.580 -5.377,-7.021 C-5.229,-4.531 -4.606,-2.265 -3.510,-0.224 C-2.913,0.572 -2.165,0.971 -1.269,0.971 C-0.125,0.971 0.870,0.621 1.718,-0.075 C2.563,-0.772 3.062,-1.569 3.211,-2.464 C3.311,-2.812 3.361,-3.137 3.361,-3.436 C3.361,-4.132 3.161,-4.705 2.763,-5.153 C2.763,-5.153 2.390,-6.499 2.390,-6.499 C2.390,-6.499 2.315,-6.499 2.315,-6.499 C2.115,-7.593 2.016,-8.913 2.016,-10.458 C2.016,-13.993 2.513,-18.698 3.510,-24.576 C4.356,-29.854 4.781,-33.813 4.781,-36.453 C4.781,-38.694 4.481,-39.988 3.884,-40.338 C3.186,-40.686 2.515,-40.861 1.868,-40.861 C0.374,-40.861 -0.722,-40.312 -1.419,-39.216 C-1.917,-38.519 -2.217,-37.823 -2.315,-37.125 C-2.315,-37.125 -2.539,-35.109 -2.539,-35.109 C-5.527,-37.398 -8.814,-38.544 -12.399,-38.544 C-16.434,-38.544 -20.268,-37.050 -23.903,-34.062 C-29.333,-29.481 -32.694,-23.854 -33.987,-17.180 C-34.237,-15.786 -34.361,-14.416 -34.361,-13.071 C-34.361,-10.781 -33.964,-8.541 -33.166,-6.349 C-30.926,-1.519 -26.941,1.019 -21.215,1.269 C-18.277,1.220 -15.437,0.435 -12.699,-1.082z M-22.559,-6.573 C-22.559,-6.573 -23.829,-7.245 -23.829,-7.245 C-24.177,-7.545 -24.452,-7.743 -24.650,-7.843 C-25.648,-8.788 -26.344,-10.034 -26.743,-11.579 C-26.792,-11.777 -26.816,-11.927 -26.816,-12.027 C-26.965,-12.822 -27.041,-13.569 -27.041,-14.267 C-27.041,-14.666 -27.017,-15.038 -26.966,-15.387 C-26.966,-15.387 -26.667,-17.329 -26.667,-17.329 C-26.667,-17.329 -26.219,-19.273 -26.219,-19.273 C-26.121,-19.371 -25.920,-19.919 -25.621,-20.916 C-24.975,-22.409 -23.930,-24.177 -22.485,-26.219 C-21.489,-27.315 -20.419,-28.360 -19.273,-29.357 C-18.377,-30.003 -17.579,-30.451 -16.881,-30.701 C-16.881,-30.701 -15.015,-31.225 -15.015,-31.225 C-14.666,-31.225 -14.442,-31.249 -14.342,-31.298 C-12.598,-31.198 -11.006,-30.851 -9.562,-30.253 C-9.512,-30.153 -9.411,-30.077 -9.262,-30.028 C-8.416,-29.580 -7.769,-29.158 -7.321,-28.760 C-7.222,-28.709 -6.873,-28.336 -6.275,-27.638 C-6.225,-27.438 -6.125,-27.264 -5.975,-27.115 C-5.578,-26.219 -5.328,-25.572 -5.229,-25.173 C-5.229,-25.173 -5.153,-25.173 -5.153,-25.173 C-5.153,-25.173 -5.229,-25.099 -5.229,-25.099 C-5.130,-24.451 -5.079,-23.878 -5.079,-23.381 C-5.079,-23.381 -5.079,-22.933 -5.079,-22.933 C-5.079,-22.434 -5.130,-21.888 -5.229,-21.290 C-5.377,-20.393 -5.553,-19.721 -5.751,-19.273 C-5.952,-18.177 -6.673,-16.631 -7.918,-14.640 C-8.765,-13.295 -9.786,-12.001 -10.980,-10.756 C-10.980,-10.706 -11.006,-10.682 -11.055,-10.682 C-12.949,-8.838 -14.890,-7.469 -16.881,-6.573 C-17.777,-6.275 -18.674,-6.074 -19.570,-5.975 C-20.716,-5.975 -21.712,-6.175 -22.559,-6.573z">
            </path>
            <path
                d=" M-71.487,-1.269 C-70.442,-1.468 -69.646,-1.942 -69.097,-2.688 C-68.550,-3.436 -68.225,-4.107 -68.125,-4.705 C-68.077,-5.053 -68.052,-5.352 -68.052,-5.602 C-68.052,-6.598 -68.450,-7.321 -69.247,-7.769 C-69.845,-8.166 -70.491,-8.366 -71.189,-8.366 C-71.189,-8.366 -72.011,-8.291 -72.011,-8.291 C-72.807,-8.142 -73.568,-8.031 -74.289,-7.955 C-75.011,-7.881 -75.721,-7.768 -76.417,-7.618 C-78.908,-7.320 -81.274,-7.171 -83.514,-7.171 C-87.300,-7.171 -89.713,-7.568 -90.760,-8.366 C-91.308,-8.614 -91.707,-8.862 -91.956,-9.112 C-92.005,-9.112 -92.130,-9.338 -92.329,-9.786 C-92.528,-10.234 -92.627,-10.607 -92.627,-10.906 C-92.627,-10.906 -92.627,-11.055 -92.627,-11.055 C-92.828,-12.001 -92.927,-12.772 -92.927,-13.371 C-92.927,-13.619 -92.902,-13.819 -92.851,-13.968 C-92.752,-14.814 -92.579,-16.135 -92.329,-17.927 C-91.981,-19.919 -91.556,-21.886 -91.058,-23.829 C-90.311,-26.617 -89.292,-30.652 -87.997,-35.930 C-86.703,-39.863 -85.655,-43.798 -84.859,-47.733 C-84.809,-47.981 -84.783,-48.229 -84.783,-48.479 C-84.783,-49.176 -85.009,-49.798 -85.457,-50.347 C-86.005,-51.044 -86.776,-51.394 -87.772,-51.394 C-88.768,-51.394 -89.690,-51.030 -90.536,-50.310 C-91.383,-49.588 -91.906,-48.729 -92.105,-47.733 C-92.752,-44.943 -93.5,-42.154 -94.346,-39.367 C-95.343,-35.881 -96.836,-30.054 -98.828,-21.886 C-99.078,-20.990 -99.277,-20.068 -99.426,-19.122 C-99.974,-16.384 -100.247,-13.595 -100.247,-10.756 C-100.247,-10.756 -100.247,-10.607 -100.247,-10.607 C-100.247,-6.872 -98.778,-4.033 -95.839,-2.092 C-92.752,-0.547 -89.391,0.224 -85.755,0.224 C-81.722,0.224 -76.967,-0.273 -71.487,-1.269z">
            </path>
        </g>
    </g>
</svg>